# xmcd
#
# Track frame offsets: 
#        150
#        17800
#        40659
#        61971
#        78963
#        105506
#        123596
#        141330
#        154197
#        174659
#        194001
#        212231
#        230269
#        248756
#        267325
#        289847
#        309102
#
# Disc length: 4372 seconds
#
# Revision: 0
# Processed by: cddbd v1.5.2PL0 Copyright (c) Steve Scherf et al.
# Submitted via: ExactAudioCopyFreeDBPlugin 1.0
#
DISCID=ee111211
DTITLE=Various Artist - Most Wanted Vol.6
DYEAR=2006
DGENRE=Hip-Hop
TTITLE0=3rd Bass - Pop Goes The Weasel
TTITLE1=EPMD - Gold Digger
TTITLE2=Eric B. and Rakim - I Know You Got Soul
TTITLE3=Positive K - I Got A Man
TTITLE4=Heavy D and The Boyz - Don't Curse (feat. Kool G Rap, Grand Puba
TTITLE4=, Pete Rock, CL Smooth, Big Daddy Kane and Q-Tip)
TTITLE5=A Lighter Shade Of Brow - Hey DJ
TTITLE6=Erick Sermon - Stay Real
TTITLE7=Nice and Smooth - Sometimes I Rhyme Slow
TTITLE8=Group Home - Tha Realness
TTITLE9=Intelligent Hoodlum - The Posse (Shoot 'Em Up)
TTITLE10=LL Cool J - Around The Way Girl
TTITLE11=Method Man and Redman - How High [Remix]
TTITLE12=Slick Rick - I Shouldn't Have Done It
TTITLE13=Lost Boyz - Jeeps, Lex Coups, Bimaz and Benz
TTITLE14=X-Clan - Shaft's Big Score
TTITLE15=Diamond D and The Psychotic Neurotics - Check One, Two
TTITLE16=Rakim - Guess Who's Back [Alternative Mix]
EXTD=
EXTT0=
EXTT1=
EXTT2=
EXTT3=
EXTT4=
EXTT5=
EXTT6=
EXTT7=
EXTT8=
EXTT9=
EXTT10=
EXTT11=
EXTT12=
EXTT13=
EXTT14=
EXTT15=
EXTT16=
PLAYORDER=
